# xmcd
#
# Track frame offsets: 
#        150
#        25867
#        40232
#        57300
#        67650
#        84170
#        102505
#        119727
#        137492
#        152487
#        167295
#        187965
#
# Disc length: 2764 seconds
#
# Revision: 3
# Processed by: cddbd v1.5.2PL0 Copyright (c) Steve Scherf et al.
# Submitted via: ExactAudioCopy v1.3
#
DISCID=8d0aca0c
DTITLE=大貫妙子 - Comin' Soon
DYEAR=1986
DGENRE=Pop
TTITLE0=アリス
TTITLE1=ピーターラビットと私
TTITLE2=ロボット・マーチ
TTITLE3=メトロポリタン美術館
TTITLE4=MOMO
TTITLE5=森のクリスマス
TTITLE6=テディ・ベア
TTITLE7=チェッカーくん
TTITLE8=お天気のいい日
TTITLE9=地下鉄のザジ
TTITLE10=タンタンの冒険
TTITLE11=カミン・スーン
EXTD=YEAR: 1986
EXTT0=
EXTT1=
EXTT2=
EXTT3=
EXTT4=
EXTT5=
EXTT6=
EXTT7=
EXTT8=
EXTT9=
EXTT10=
EXTT11=
PLAYORDER=
